HIERARCHY
ROOT Hips
{
	OFFSET	0.00	0.00	0.00
	CHANNELS 6 Xposition Yposition Zposition Zrotation Xrotation Yrotation
	JOINT LeftUpLeg
	{
		OFFSET	 0.126116	-0.014019	-0.065224
		CHANNELS 3 Zrotation Xrotation Yrotation
		JOINT LeftLeg
		{
			OFFSET	 0.000000	 0.000000	 0.569914
			CHANNELS 3 Zrotation Xrotation Yrotation
			JOINT LeftFoot
			{
				OFFSET	 0.000000	 0.000000	 0.544423
				CHANNELS 3 Zrotation Xrotation Yrotation
				JOINT LeftToeBase
				{
					OFFSET	 0.000000	 0.000000	 0.207117
					CHANNELS 3 Zrotation Xrotation Yrotation
					End Site
					{
						OFFSET	 0.000000	 0.000000	 0.207117
					}
				}
			}
		}
	}
	JOINT RightUpLeg
	{
		OFFSET	-0.124023	-0.008373	-0.065224
		CHANNELS 3 Zrotation Xrotation Yrotation
		JOINT RightLeg
		{
			OFFSET	 0.000000	 0.000000	 0.570047
			CHANNELS 3 Zrotation Xrotation Yrotation
			JOINT RightFoot
			{
				OFFSET	 0.000000	 0.000000	 0.544354
				CHANNELS 3 Zrotation Xrotation Yrotation
				JOINT RightToeBase
				{
					OFFSET	 0.000000	 0.000000	 0.207540
					CHANNELS 3 Zrotation Xrotation Yrotation
					End Site
					{
						OFFSET	 0.000000	 0.000000	 0.207540
					}
				}
			}
		}
	}
	JOINT Spine
	{
		OFFSET	 0.000184	-0.007763	 0.117403
		CHANNELS 3 Zrotation Xrotation Yrotation
		JOINT Spine1
		{
			OFFSET	 0.000000	 0.000000	 0.137269
			CHANNELS 3 Zrotation Xrotation Yrotation
			JOINT Spine2
			{
				OFFSET	 0.000000	 0.000000	 0.156879
				CHANNELS 3 Zrotation Xrotation Yrotation
				JOINT LeftShoulder
				{
					OFFSET	 0.080501	-0.002496	 0.160144
					CHANNELS 3 Zrotation Xrotation Yrotation
					JOINT LeftArm
					{
						OFFSET	 0.000000	 0.000000	 0.164363
						CHANNELS 3 Zrotation Xrotation Yrotation
						JOINT LeftForeArm
						{
							OFFSET	 0.000000	 0.000000	 0.364576
							CHANNELS 3 Zrotation Xrotation Yrotation
							JOINT LeftHand
							{
								OFFSET	 0.000000	 0.000000	 0.360812
								CHANNELS 3 Zrotation Xrotation Yrotation
								JOINT LeftHandIndex1
								{
									OFFSET	 0.000000	 0.000000	 0.086006
									CHANNELS 3 Zrotation Xrotation Yrotation
									JOINT LeftHandIndex2
									{
										OFFSET	 0.000000	 0.000000	 0.047236
										CHANNELS 3 Zrotation Xrotation Yrotation
										JOINT LeftHandIndex3
										{
											OFFSET	-0.004284	-0.000551	 0.038166
											CHANNELS 3 Zrotation Xrotation Yrotation
											End Site
											{
												OFFSET	-0.004284	-0.000551	 0.038166
											}
										}
									}
								}
							}
						}
					}
				}
				JOINT Neck
				{
					OFFSET	 0.000000	 0.000000	 0.176489
					CHANNELS 3 Zrotation Xrotation Yrotation
					JOINT Head
					{
						OFFSET	 0.000000	-0.001747	 0.077940
						CHANNELS 3 Zrotation Xrotation Yrotation
						End Site
						{
							OFFSET	 0.000000	-0.001747	 0.077940
						}
					}
				}
				JOINT RightShoulder
				{
					OFFSET	-0.080363	 0.000306	 0.159706
					CHANNELS 3 Zrotation Xrotation Yrotation
					JOINT RightArm
					{
						OFFSET	 0.000000	 0.000000	 0.164196
						CHANNELS 3 Zrotation Xrotation Yrotation
						JOINT RightForeArm
						{
							OFFSET	 0.000000	 0.000000	 0.365611
							CHANNELS 3 Zrotation Xrotation Yrotation
							JOINT RightHand
							{
								OFFSET	 0.000000	 0.000000	 0.360648
								CHANNELS 3 Zrotation Xrotation Yrotation
								JOINT RightHandIndex1
								{
									OFFSET	 0.000000	 0.000000	 0.069977
									CHANNELS 3 Zrotation Xrotation Yrotation
									JOINT RightHandIndex2
									{
										OFFSET	 0.000000	 0.000000	 0.052305
										CHANNELS 3 Zrotation Xrotation Yrotation
										JOINT RightHandIndex3
										{
											OFFSET	 0.009002	-0.000782	 0.042196
											CHANNELS 3 Zrotation Xrotation Yrotation
											End Site
											{
												OFFSET	 0.009002	-0.000782	 0.042196
											}
										}
									}
								}
							}
						}
					}
				}
			}
		}
	}
}
MOTION
Frames:    4
Frame Time: 0.03333334
-0.059234	-2.237033	 1.168785	 4.913478	-1.390003	-3.431978	 30.305130	-13.231740	-177.906400	 0.940063	-47.888310	 0.435717	 115.216600	 83.093800	-119.267800	-2.369915	 31.527660	-0.067953	-37.462870	-38.126380	-179.884200	 11.460780	-54.145350	 9.954841	-9.308520	 75.129220	 18.402090	 2.358678	 33.042620	 0.104215	-34.899080	 8.713579	 1.219526	 0.561616	 3.072655	 1.975626	-5.599982	-2.989524	-2.571577	-93.917580	 58.984360	 175.430100	 9.707378	 26.441190	-38.345640	 16.410310	-3.242709	-9.988536	-12.760440	-5.436209	-8.748825	-4.869099	 19.247530	-2.786516	-3.884808	 21.430760	 2.206091	-4.808268	 5.545427	 0.146971	-0.081621	-5.068290	 0.181219	-7.560259	 1.966791	 2.274734	 89.785510	 61.641190	-179.992000	-18.100740	 47.762290	 12.202450	-19.380530	-3.302732	 10.015470	 8.840463	 7.272333	-1.160107	 6.294873	 24.974040	-0.544271	 1.871670	 44.812240	-6.980785	 0.517490	 24.314700	 3.572719
-0.063077	-2.313475	 1.163357	 6.194756	-0.209695	-3.692706	 28.346210	-10.462610	-179.507500	 1.587258	-46.671620	 0.898110	 139.887600	 83.523160	-143.705400	-2.367135	 31.985720	-0.078352	-42.391490	-40.340330	 173.645300	 10.762750	-41.295040	 7.661081	-28.777610	 76.452220	 36.882950	 2.359858	 32.869500	 0.100195	-40.013990	 7.889061	 0.962057	 0.764669	 3.461423	 2.625154	-7.087724	-3.385043	-3.232000	-94.251790	 58.995590	 174.715900	 7.239748	 22.055760	-39.489860	 19.614200	-4.838157	-11.946200	-12.279270	-5.867805	-9.918583	-4.856420	 19.571560	-2.807833	-3.863502	 21.702710	 2.184435	-4.798577	 5.659631	 0.140281	-0.016278	-5.139612	 0.275528	-8.778264	 1.799286	 1.980420	 89.641170	 61.817390	 179.661900	-17.706170	 49.550080	 9.046522	-24.562550	-4.919189	 11.969060	 8.738977	 8.051987	-2.114962	 6.258284	 22.398440	-0.580247	 2.156193	 42.414880	-7.232831	 1.047743	 21.941790	 3.312653
-0.068391	-2.400902	 1.151307	 6.612645	 0.636946	-4.313403	 27.054170	-6.212218	 178.595900	 1.842102	-44.681090	 1.047390	 169.820300	 82.802950	-173.049800	-2.359291	 33.188720	-0.106041	-42.400090	-42.195520	 169.338400	 9.968204	-29.141010	 5.270180	-45.707650	 78.192630	 51.671270	 2.353430	 33.789900	 0.121697	-41.883260	 6.992404	 1.205274	 0.913181	 4.457449	 2.962475	-8.253020	-3.818210	-3.727531	-94.471290	 58.874240	 174.267500	 4.601932	 18.711930	-40.627010	 22.173760	-6.618614	-13.642220	-13.074650	-6.655738	-9.287433	-4.827254	 20.187600	-2.822519	-3.825824	 22.178790	 2.146167	-4.771777	 5.974430	 0.121742	 0.020882	-5.270691	 0.340925	-9.820521	 1.610908	 1.801643	 89.454700	 62.022750	 179.208600	-16.583380	 51.008450	 5.674063	-30.429040	-6.727027	 13.648900	 8.456462	 8.398378	-4.270912	 6.199219	 19.210550	-0.702296	 2.511952	 39.087030	-7.542527	 1.738066	 18.710000	 3.002355
-0.075122	-2.477592	 1.136277	 6.986781	 0.686771	-4.647261	 25.805910	-1.729986	 176.405100	 2.191114	-42.455470	 1.241179	-169.246600	 83.069640	 166.530200	-2.331304	 36.727020	-0.191128	-41.741130	-46.134580	 166.698000	 10.585030	-26.530270	 5.120141	-54.354440	 78.862310	 59.036960	 2.335544	 36.050520	 0.176094	-41.015270	 7.031573	 1.311179	 0.998029	 4.707160	 3.249133	-8.996233	-4.011971	-4.098771	-94.542300	 58.947650	 174.104700	 2.620834	 17.504350	-41.256980	 24.967040	-8.236531	-14.877450	-13.934850	-7.675948	-9.955664	-4.848502	 20.513200	-3.041938	-3.786242	 22.672790	 2.105963	-4.728160	 6.483852	 0.091392	 0.114645	-5.406587	 0.343263	-10.401480	 1.579193	 1.398028	 89.358050	 61.927260	 178.978700	-14.917230	 51.553260	 2.325667	-35.178800	-8.357496	 14.866030	 8.748421	 7.679399	-6.093508	 6.166554	 16.076920	-0.658176	 2.881522	 35.185090	-7.856454	 2.382274	 15.555330	 2.743844
